<?xml version="1.0" standalone="no"?>
<!DOCTYPE svg PUBLIC "-//W3C//DTD SVG 20010904//EN"
 "http://www.w3.org/TR/2001/REC-SVG-20010904/DTD/svg10.dtd">
<svg version="1.0" xmlns="http://www.w3.org/2000/svg"
 width="600.000000pt" height="600.000000pt" viewBox="0 0 600.000000 600.000000"
 preserveAspectRatio="xMidYMid meet">
<metadata>
Created by potrace 1.11, written by Peter Selinger 2001-2013
</metadata>
<g transform="translate(0.000000,600.000000) scale(0.100000,-0.100000)"
fill="#000000" stroke="none">
<path d="M2937 5974 c-1 -1 -56 -4 -122 -8 -66 -3 -133 -8 -150 -10 -16 -3
-66 -10 -110 -17 -44 -6 -89 -13 -100 -15 -11 -3 -33 -7 -50 -9 -24 -5 -211
-51 -275 -69 -126 -36 -429 -161 -512 -213 -21 -13 -40 -23 -44 -23 -8 0 -103
-57 -199 -119 -79 -51 -202 -142 -285 -210 -76 -63 -308 -293 -347 -344 -17
-23 -40 -51 -50 -62 -32 -35 -108 -137 -170 -230 -107 -160 -194 -323 -278
-520 -33 -77 -121 -351 -132 -410 -2 -11 -12 -58 -23 -105 -42 -189 -62 -374
-62 -599 -1 -123 8 -302 16 -348 2 -10 7 -40 10 -68 4 -27 10 -66 12 -85 32
-216 155 -609 249 -790 13 -25 26 -52 29 -60 6 -15 35 -68 90 -164 201 -351
550 -723 896 -956 363 -243 818 -425 1193 -475 38 -6 172 -23 232 -30 58 -7
407 -8 480 0 53 5 124 13 190 21 249 30 603 139 860 264 422 204 749 468 1068
861 15 19 66 91 114 162 284 421 454 904 498 1422 7 76 7 392 1 465 -9 105
-17 176 -21 190 -2 8 -7 35 -10 60 -44 319 -200 746 -385 1050 -54 89 -201
304 -219 320 -3 3 -33 37 -65 75 -78 92 -253 267 -341 342 -96 81 -259 203
-273 203 -5 0 -12 4 -14 8 -11 27 -309 188 -489 265 -105 45 -359 131 -415
140 -16 3 -58 12 -94 21 -62 14 -118 26 -150 30 -8 1 -35 5 -60 9 -83 12 -135
17 -225 23 -87 5 -265 10 -268 8z"/>
</g>
</svg>
